# xmcd
#
# Track frame offsets:
#	150
#	11972
#	22397
#	31520
#	46510
#	58865
#	68377
#	81802
#	95547
#	106057
#	118762
#	130182
#	144402
#	153415
#	164302
#	178585
#	190082
#	204010
#	215877
#	226562
#	238972
#	250447
#	262140
#	274750
#	286282
#	298630
#	313050
#
# Disc length: 4364 seconds
#
# Revision: 0
# Processed by: cddbd v1.5.2PL0 Copyright (c) Steve Scherf et al.
# Submitted via: MusicWizard 7.0.2
#
DISCID=83110a1b
DTITLE=Peter Steffen - Als Ich Ein Kleiner Junge War
DYEAR=1900
DGENRE=Schlager
TTITLE0=Als Ich Ein Kleiner Junge War 1960
TTITLE1=Hüh-A-Ho (4 Schimmel, Ein Wagen) (& Hannelore Bassen) 1961
TTITLE2=Zwei Sommer Lang 1996
TTITLE3=Wenn Morgen Früh Die Sonne Scheint (& Sohn Roland) 1961
TTITLE4=Es War An Der Riviera (& Hannelore Bassen) 1960
TTITLE5=Tag Für Tag 1996
TTITLE6=Sag', Warum Willst Du Von Mir Gehen 1996
TTITLE7=Schau In Meine Augen 1996
TTITLE8=Auf Meinen Jungen Kann Ich Mich Verlassen (& Roland) 1962
TTITLE9=Eine Himmelblaue Kutsche (& Hannelore Bassen) 1960
TTITLE10=Der Pupenspieler 1961
TTITLE11=Pepinos Freund Pasquale 1963
TTITLE12=Wie Im September 1961
TTITLE13=Es Liegt Mir Am Herzen 1960
TTITLE14=Die Kleine Stadt Will Schlafen Geh'n 1964
TTITLE15=Erst Mußt Du Mal Zur Schule Geh'n (& Roland) 1962
TTITLE16=Dir, Dir Nur Allein 1996
TTITLE17=Tabu-Twist 1963
TTITLE18=Ich Bin Dein, Du Bist Mein 1963
TTITLE19=Sag' Papa 1963
TTITLE20=Hilo-Hulalei 1963
TTITLE21=Sie War Ein Kind Der Heide (Hannelore Bassen) 1960
TTITLE22=Beim Auseinandergeh'n 1996
TTITLE23=Hör' Mal Mein Junge (& Roland) 1963
TTITLE24=Drei Zärtliche Küsse (& Hannelore Bassen) 1961
TTITLE25=Wer Im November Nicht Lieben Kann 1996
TTITLE26=Goodbye, Auf Wiedersehen 1996
EXTD=
EXTT0=
EXTT1=
EXTT2=
EXTT3=
EXTT4=
EXTT5=
EXTT6=
EXTT7=
EXTT8=
EXTT9=
EXTT10=
EXTT11=
EXTT12=
EXTT13=
EXTT14=
EXTT15=
EXTT16=
EXTT17=
EXTT18=
EXTT19=
EXTT20=
EXTT21=
EXTT22=
EXTT23=
EXTT24=
EXTT25=
EXTT26=
PLAYORDER=
